# xmcd
#
# Track frame offsets: 
#        150
#        13830
#        28709
#        39916
#        52839
#        63288
#        73172
#        85150
#        99505
#        111033
#        122585
#        134261
#        143008
#        151316
#        164219
#        173861
#        183141
#        193395
#        205519
#        220546
#        229618
#        238466
#
# Disc length: 3333 seconds
#
# Revision: 3
# Processed by: cddbd v1.5.2PL0 Copyright (c) Steve Scherf et al.
# Submitted via: ExactAudioCopyFreeDBPlugin 1.0
#
DISCID=2f0d0316
DTITLE=Nat King Cole - Sings the Great Songs - Thank You Pretty Baby
DYEAR=1900
DGENRE=Oldies
TTITLE0=An Affair to Remember
TTITLE1=You're My thrill
TTITLE2=Fascination
TTITLE3=Farewell To You
TTITLE4=I WIsh I Knew
TTITLE5=For the Want of a Kiss
TTITLE6=There's A Gold Mine in the Sky
TTITLE7=Happy New Year
TTITLE8=Be Still My Heart
TTITLE9=Around the World
TTITLE10=I Had the Craziest Dream
TTITLE11=Magic Moment
TTITLE12=Make It Last
TTITLE13=You Made Me Love You
TTITLE14=Thank You Pretty Baby
TTITLE15=Unfair
TTITLE16=Magic Night
TTITLE17=People
TTITLE18=United
TTITLE19=Brazilian Love Song
TTITLE20=One Sun
TTITLE21=Mr Wishing Well
EXTD=
EXTT0=
EXTT1=
EXTT2=
EXTT3=
EXTT4=
EXTT5=
EXTT6=
EXTT7=
EXTT8=
EXTT9=
EXTT10=
EXTT11=
EXTT12=
EXTT13=
EXTT14=
EXTT15=
EXTT16=
EXTT17=
EXTT18=
EXTT19=
EXTT20=
EXTT21=
PLAYORDER=
